<?xml version="1.0" encoding="UTF-8"?>
<svg id="Layer_1" data-name="Layer 1" xmlns="http://www.w3.org/2000/svg" viewBox="0 0 34 20">
  <defs>
    <style>
      .cls-1 {
        fill: #fff;
      }
    </style>
  </defs>
  <path class="cls-1" d="M28.79,0H5.21C2.34,0,0,2.33,0,5.21V14.79C0,17.66,2.34,20,5.21,20H28.79c2.87,0,5.21-2.33,5.21-5.21V5.21C34,2.33,31.67,0,28.79,0Zm-5.6,10l8.72-5.49c.05,.23,.08,.46,.08,.7V14.79c0,.24-.03,.48-.08,.7l-8.72-5.49ZM28.79,2c.8,0,1.53,.31,2.09,.79l-10.09,6.36s0,0,0,0l-3.79,2.39L3.12,2.79c.56-.49,1.29-.8,2.09-.8H28.79ZM2.1,15.56c-.06-.25-.1-.5-.1-.77V5.21c0-.24,.03-.47,.08-.7l8.78,5.53L2.1,15.56Zm3.1,2.44c-.78,0-1.48-.29-2.04-.75l9.57-6.03,3.73,2.35c.16,.1,.35,.15,.53,.15s.37-.05,.53-.15l3.79-2.39,9.56,6.02c-.56,.49-1.29,.79-2.09,.79H5.21Z"/>
</svg>