<?xml version="1.0" encoding="utf-8"?>
<!-- Generator: Adobe Illustrator 26.4.1, SVG Export Plug-In . SVG Version: 6.00 Build 0)  -->
<svg version="1.1" id="Layer_1" xmlns="http://www.w3.org/2000/svg" xmlns:xlink="http://www.w3.org/1999/xlink" x="0px" y="0px"
	 viewBox="0 0 78 48" style="enable-background:new 0 0 78 48;" xml:space="preserve">
<style type="text/css">
	.st0{fill:#FFFFFF;}
</style>
<path class="st0" d="M66,0H12C5.4,0,0,5.4,0,12v24c0,6.6,5.4,12,12,12h54c6.6,0,12-5.4,12-12V12C78,5.4,72.6,0,66,0z M74,12v24
	c0,0.7-0.1,1.4-0.3,2.1L52.6,24L73.7,9.9C73.9,10.6,74,11.3,74,12L74,12z M12,4h54c2.2,0,4.3,0.9,5.8,2.4L39,28.3L6.2,6.4
	C7.7,4.9,9.7,4,12,4z M4.3,38.2C4.1,37.5,4,36.8,4,36V12c0-0.7,0.1-1.4,0.3-2.1l21.3,14.2L4.3,38.2z M66,44H12
	c-2.2,0-4.2-0.9-5.6-2.3l22.8-15.2l8.7,5.8c0.3,0.2,0.7,0.3,1.1,0.3s0.8-0.1,1.1-0.3l8.9-5.9l22.8,15.1C70.3,43.1,68.3,44,66,44
	L66,44z"/>
</svg>
