<?xml version="1.0" encoding="UTF-8"?>
<svg id="Layer_1" data-name="Layer 1" xmlns="http://www.w3.org/2000/svg" viewBox="0 0 78 48">
  <path d="M66,0H12C5.38,0,0,5.38,0,12v24C0,42.62,5.38,48,12,48h54c6.62,0,12-5.38,12-12V12C78,5.38,72.62,0,66,0Zm8,12v24c0,.72-.1,1.41-.28,2.07l-21.12-14.06,21.12-14.06c.18,.66,.28,1.35,.28,2.06ZM12,4h54c2.25,0,4.29,.94,5.75,2.45L39,28.26,6.25,6.45c1.46-1.51,3.49-2.45,5.75-2.45ZM4.32,38.22c-.21-.71-.32-1.45-.32-2.22V12c0-.71,.1-1.4,.28-2.06l21.26,14.16L4.32,38.22Zm61.68,5.78H12c-2.2,0-4.19-.89-5.64-2.33l22.78-15.17,8.75,5.83c.34,.22,.72,.33,1.11,.33s.77-.11,1.11-.33l8.89-5.92,22.75,15.15c-1.46,1.5-3.49,2.44-5.74,2.44Z"/>
</svg>