<svg id="Layer_1" data-name="Layer 1" xmlns="http://www.w3.org/2000/svg" viewBox="0 0 48 48"><defs><style>.cls-1{fill:#fff;}</style></defs><path class="cls-1" d="M34.23,48H13.77A13.79,13.79,0,0,1,0,34.23V13.77A13.79,13.79,0,0,1,13.77,0H34.23A13.79,13.79,0,0,1,48,13.77V34.23A13.79,13.79,0,0,1,34.23,48ZM13.77,4.12a9.66,9.66,0,0,0-9.65,9.65V34.23a9.66,9.66,0,0,0,9.65,9.65H34.23a9.66,9.66,0,0,0,9.65-9.65V13.77a9.66,9.66,0,0,0-9.65-9.65Z"/><path class="cls-1" d="M24,36.34A12.34,12.34,0,1,1,36.34,24,12.35,12.35,0,0,1,24,36.34Zm0-20.56A8.22,8.22,0,1,0,32.22,24,8.23,8.23,0,0,0,24,15.78Z"/><circle class="cls-1" cx="36.9" cy="11.1" r="2.88"/></svg>