<?xml version="1.0" encoding="UTF-8"?>
<svg id="Layer_1" data-name="Layer 1" xmlns="http://www.w3.org/2000/svg" viewBox="0 0 48 48">
  <path d="M36,48H12C5.38,48,0,42.62,0,36V12C0,5.38,5.38,0,12,0h24C42.62,0,48,5.38,48,12v24c0,6.62-5.38,12-12,12ZM12,4C7.59,4,4,7.59,4,12v24c0,4.41,3.59,8,8,8h24c4.41,0,8-3.59,8-8V12c0-4.41-3.59-8-8-8H12Z"/>
  <path d="M24,36.27c-6.77,0-12.27-5.5-12.27-12.27s5.5-12.27,12.27-12.27,12.27,5.5,12.27,12.27-5.5,12.27-12.27,12.27Zm0-20.54c-4.56,0-8.27,3.71-8.27,8.27s3.71,8.27,8.27,8.27,8.27-3.71,8.27-8.27-3.71-8.27-8.27-8.27Z"/>
  <path d="M36.9,13.97c-1.58,0-2.87-1.29-2.87-2.87s1.29-2.87,2.87-2.87,2.87,1.29,2.87,2.87-1.29,2.87-2.87,2.87Z"/>
</svg>