<?xml version="1.0" encoding="utf-8"?>
<!-- Generator: Adobe Illustrator 26.4.1, SVG Export Plug-In . SVG Version: 6.00 Build 0)  -->
<svg version="1.1" id="Layer_1" xmlns="http://www.w3.org/2000/svg" xmlns:xlink="http://www.w3.org/1999/xlink" x="0px" y="0px"
	 viewBox="0 0 48 48" style="enable-background:new 0 0 48 48;" xml:space="preserve">
<style type="text/css">
	.st0{fill:#FFFFFF;}
</style>
<path class="st0" d="M36,48H12C5.4,48,0,42.6,0,36V12C0,5.4,5.4,0,12,0h24c6.6,0,12,5.4,12,12v24C48,42.6,42.6,48,36,48z M12,4
	c-4.4,0-8,3.6-8,8v24c0,4.4,3.6,8,8,8h24c4.4,0,8-3.6,8-8V12c0-4.4-3.6-8-8-8H12z"/>
<path class="st0" d="M24,36.3c-6.8,0-12.3-5.5-12.3-12.3S17.2,11.7,24,11.7S36.3,17.2,36.3,24S30.8,36.3,24,36.3z M24,15.7
	c-4.6,0-8.3,3.7-8.3,8.3s3.7,8.3,8.3,8.3s8.3-3.7,8.3-8.3S28.6,15.7,24,15.7z"/>
<path class="st0" d="M36.9,14c-1.6,0-2.9-1.3-2.9-2.9s1.3-2.9,2.9-2.9s2.9,1.3,2.9,2.9S38.5,14,36.9,14z"/>
</svg>
