<?xml version="1.0" encoding="UTF-8"?>
<svg id="Layer_1" data-name="Layer 1" xmlns="http://www.w3.org/2000/svg" viewBox="0 0 26 26">
  <defs>
    <style>
      .cls-1 {
        fill: #fff;
      }
    </style>
  </defs>
  <path class="cls-1" d="M19.55,26H6.46C2.9,26,0,23.1,0,19.55V6.45C0,2.9,2.9,0,6.46,0h13.09C23.1,0,26,2.9,26,6.45v13.09c0,3.56-2.9,6.45-6.45,6.45ZM6.46,2C4,2,2,4,2,6.45v13.09c0,2.46,2,4.45,4.46,4.45h13.09c2.46,0,4.45-2,4.45-4.45V6.45c0-2.46-2-4.46-4.45-4.46H6.46Z"/>
  <path class="cls-1" d="M13,19.6c-3.64,0-6.6-2.96-6.6-6.6s2.96-6.6,6.6-6.6,6.6,2.96,6.6,6.6-2.96,6.6-6.6,6.6Zm0-11.2c-2.54,0-4.6,2.06-4.6,4.6s2.06,4.6,4.6,4.6,4.6-2.06,4.6-4.6-2.06-4.6-4.6-4.6Z"/>
  <path class="cls-1" d="M20.04,7.44c-.81,0-1.47-.66-1.47-1.47s.66-1.47,1.47-1.47,1.47,.66,1.47,1.47-.66,1.47-1.47,1.47Z"/>
</svg>